<mxfile host="app.diagrams.net" modified="2021-11-07T03:34:57.750Z" agent="5.0 (Windows NT 10.0; Win64; x64) AppleWebKit/537.36 (KHTML, like Gecko) Chrome/95.0.4638.69 Safari/537.36" etag="ku-RCQquEJF4VS4oEa6Y" version="15.7.0" type="github">
  <diagram id="vylxja2e9uUPIjIBVGeI" name="第 1 页">
    <mxGraphModel dx="1483" dy="781" grid="1" gridSize="10" guides="1" tooltips="1" connect="1" arrows="1" fold="1" page="1" pageScale="1" pageWidth="827" pageHeight="1169" math="0" shadow="0">
      <root>
        <mxCell id="0" />
        <mxCell id="1" parent="0" />
        <mxCell id="cKF6XrIwRZo3c_A1Ql75-46" value="" style="rounded=0;whiteSpace=wrap;html=1;shadow=0;glass=0;labelBackgroundColor=none;sketch=0;fontColor=default;strokeColor=default;fillColor=none;dashed=1;" vertex="1" parent="1">
          <mxGeometry x="876" y="430" width="230" height="671.5" as="geometry" />
        </mxCell>
        <mxCell id="cKF6XrIwRZo3c_A1Ql75-1" value="&lt;pre style=&quot;background-color: rgb(255 , 255 , 255) ; font-family: &amp;quot;jetbrains mono&amp;quot; , monospace ; font-size: 10px&quot;&gt;&lt;br&gt;&lt;/pre&gt;" style="rounded=0;whiteSpace=wrap;html=1;verticalAlign=top;fillColor=none;align=left;dashed=1;strokeColor=#4D4D4D;fontColor=default;" vertex="1" parent="1">
          <mxGeometry x="110" y="840" width="630" height="220" as="geometry" />
        </mxCell>
        <mxCell id="cKF6XrIwRZo3c_A1Ql75-2" value="&lt;pre style=&quot;background-color: rgb(255 , 255 , 255) ; font-family: &amp;quot;jetbrains mono&amp;quot; , monospace ; font-size: 10px&quot;&gt;&lt;br&gt;&lt;/pre&gt;" style="rounded=0;whiteSpace=wrap;html=1;verticalAlign=top;fillColor=none;align=center;dashed=1;strokeColor=#4D4D4D;fontColor=default;" vertex="1" parent="1">
          <mxGeometry x="179" y="580" width="140" height="150" as="geometry" />
        </mxCell>
        <mxCell id="cKF6XrIwRZo3c_A1Ql75-3" value="&lt;pre style=&quot;background-color: rgb(255 , 255 , 255) ; font-family: &amp;quot;jetbrains mono&amp;quot; , monospace ; font-size: 10px&quot;&gt;&lt;br&gt;&lt;/pre&gt;" style="rounded=0;whiteSpace=wrap;html=1;verticalAlign=top;fillColor=none;align=center;dashed=1;strokeColor=#4D4D4D;fontColor=#666666;" vertex="1" parent="1">
          <mxGeometry x="170" y="877" width="130" height="140" as="geometry" />
        </mxCell>
        <mxCell id="cKF6XrIwRZo3c_A1Ql75-4" value="" style="edgeStyle=orthogonalEdgeStyle;rounded=0;orthogonalLoop=1;jettySize=auto;html=1;" edge="1" parent="1" source="cKF6XrIwRZo3c_A1Ql75-6" target="cKF6XrIwRZo3c_A1Ql75-8">
          <mxGeometry relative="1" as="geometry" />
        </mxCell>
        <mxCell id="cKF6XrIwRZo3c_A1Ql75-5" style="edgeStyle=orthogonalEdgeStyle;rounded=0;orthogonalLoop=1;jettySize=auto;html=1;entryX=0;entryY=0.5;entryDx=0;entryDy=0;labelBackgroundColor=default;fontSize=13;fontColor=default;strokeColor=default;exitX=1;exitY=0.5;exitDx=0;exitDy=0;" edge="1" parent="1" source="cKF6XrIwRZo3c_A1Ql75-6" target="cKF6XrIwRZo3c_A1Ql75-19">
          <mxGeometry relative="1" as="geometry">
            <Array as="points">
              <mxPoint x="140" y="960" />
              <mxPoint x="140" y="1040" />
              <mxPoint x="565" y="1040" />
            </Array>
            <mxPoint x="19" y="960" as="sourcePoint" />
          </mxGeometry>
        </mxCell>
        <mxCell id="cKF6XrIwRZo3c_A1Ql75-6" value="Degraded" style="rounded=0;whiteSpace=wrap;html=1;fillColor=none;strokeColor=none;fontColor=default;" vertex="1" parent="1">
          <mxGeometry x="20" y="940" width="80" height="40" as="geometry" />
        </mxCell>
        <mxCell id="cKF6XrIwRZo3c_A1Ql75-7" style="edgeStyle=orthogonalEdgeStyle;rounded=0;orthogonalLoop=1;jettySize=auto;html=1;exitX=0.5;exitY=1;exitDx=0;exitDy=0;entryX=0.5;entryY=0;entryDx=0;entryDy=0;" edge="1" parent="1" source="cKF6XrIwRZo3c_A1Ql75-8" target="cKF6XrIwRZo3c_A1Ql75-10">
          <mxGeometry relative="1" as="geometry" />
        </mxCell>
        <mxCell id="cKF6XrIwRZo3c_A1Ql75-8" value="Conv" style="rounded=1;whiteSpace=wrap;html=1;rotation=-90;verticalAlign=middle;fillColor=#f5f5f5;strokeColor=#000000;fontColor=#333333;" vertex="1" parent="1">
          <mxGeometry x="160" y="940" width="80" height="40" as="geometry" />
        </mxCell>
        <mxCell id="cKF6XrIwRZo3c_A1Ql75-9" style="edgeStyle=orthogonalEdgeStyle;rounded=0;orthogonalLoop=1;jettySize=auto;html=1;exitX=0.5;exitY=1;exitDx=0;exitDy=0;entryX=0.5;entryY=0;entryDx=0;entryDy=0;" edge="1" parent="1" source="cKF6XrIwRZo3c_A1Ql75-10" target="cKF6XrIwRZo3c_A1Ql75-13">
          <mxGeometry relative="1" as="geometry" />
        </mxCell>
        <mxCell id="cKF6XrIwRZo3c_A1Ql75-10" value="CAB" style="rounded=1;whiteSpace=wrap;html=1;rotation=-90;verticalAlign=middle;fillColor=#d5e8d4;strokeColor=#000000;fontColor=default;" vertex="1" parent="1">
          <mxGeometry x="230" y="940" width="80" height="40" as="geometry" />
        </mxCell>
        <mxCell id="cKF6XrIwRZo3c_A1Ql75-11" style="edgeStyle=orthogonalEdgeStyle;rounded=0;orthogonalLoop=1;jettySize=auto;html=1;exitX=1;exitY=0.5;exitDx=0;exitDy=0;fontColor=#FF170F;fillColor=#b1ddf0;strokeColor=#10739e;labelBackgroundColor=default;dashed=1;dashPattern=1 1;entryX=0;entryY=0.25;entryDx=0;entryDy=0;" edge="1" parent="1" source="cKF6XrIwRZo3c_A1Ql75-13" target="cKF6XrIwRZo3c_A1Ql75-24">
          <mxGeometry relative="1" as="geometry">
            <Array as="points">
              <mxPoint x="370" y="810" />
              <mxPoint x="472" y="810" />
            </Array>
            <mxPoint x="470" y="710" as="targetPoint" />
          </mxGeometry>
        </mxCell>
        <mxCell id="cKF6XrIwRZo3c_A1Ql75-12" style="edgeStyle=orthogonalEdgeStyle;rounded=0;orthogonalLoop=1;jettySize=auto;html=1;exitX=0.5;exitY=1;exitDx=0;exitDy=0;" edge="1" parent="1" source="cKF6XrIwRZo3c_A1Ql75-13" target="cKF6XrIwRZo3c_A1Ql75-16">
          <mxGeometry relative="1" as="geometry" />
        </mxCell>
        <mxCell id="cKF6XrIwRZo3c_A1Ql75-13" value="" style="verticalLabelPosition=middle;verticalAlign=middle;html=1;shape=trapezoid;perimeter=trapezoidPerimeter;whiteSpace=wrap;size=0.23;arcSize=10;flipV=1;labelPosition=center;align=center;rotation=-90;fillColor=#fff2cc;strokeColor=#000000;fontColor=default;" vertex="1" parent="1">
          <mxGeometry x="320" y="930" width="100" height="60" as="geometry" />
        </mxCell>
        <mxCell id="cKF6XrIwRZo3c_A1Ql75-14" value="" style="edgeStyle=orthogonalEdgeStyle;rounded=0;orthogonalLoop=1;jettySize=auto;html=1;" edge="1" parent="1" source="cKF6XrIwRZo3c_A1Ql75-16" target="cKF6XrIwRZo3c_A1Ql75-19">
          <mxGeometry relative="1" as="geometry" />
        </mxCell>
        <mxCell id="cKF6XrIwRZo3c_A1Ql75-15" style="edgeStyle=orthogonalEdgeStyle;rounded=0;orthogonalLoop=1;jettySize=auto;html=1;exitX=0;exitY=0.5;exitDx=0;exitDy=0;entryX=0;entryY=0.25;entryDx=0;entryDy=0;fontColor=#FF170F;fillColor=#fad9d5;strokeColor=#ae4132;labelBackgroundColor=default;dashed=1;" edge="1" parent="1" source="cKF6XrIwRZo3c_A1Ql75-16" target="cKF6XrIwRZo3c_A1Ql75-24">
          <mxGeometry relative="1" as="geometry">
            <mxPoint x="630" y="698.5" as="targetPoint" />
            <Array as="points">
              <mxPoint x="472" y="922" />
            </Array>
          </mxGeometry>
        </mxCell>
        <mxCell id="cKF6XrIwRZo3c_A1Ql75-16" value="" style="verticalLabelPosition=middle;verticalAlign=middle;html=1;shape=trapezoid;perimeter=trapezoidPerimeter;whiteSpace=wrap;size=0.23;arcSize=10;flipV=1;labelPosition=center;align=center;rotation=90;fillColor=#f8cecc;strokeColor=#000000;fontColor=default;" vertex="1" parent="1">
          <mxGeometry x="410" y="930" width="100" height="60" as="geometry" />
        </mxCell>
        <mxCell id="cKF6XrIwRZo3c_A1Ql75-17" value="" style="edgeStyle=orthogonalEdgeStyle;rounded=0;orthogonalLoop=1;jettySize=auto;html=1;" edge="1" parent="1" source="cKF6XrIwRZo3c_A1Ql75-19" target="cKF6XrIwRZo3c_A1Ql75-20">
          <mxGeometry relative="1" as="geometry" />
        </mxCell>
        <mxCell id="cKF6XrIwRZo3c_A1Ql75-18" style="edgeStyle=orthogonalEdgeStyle;rounded=0;orthogonalLoop=1;jettySize=auto;html=1;exitX=1;exitY=0.5;exitDx=0;exitDy=0;entryX=0.5;entryY=1;entryDx=0;entryDy=0;fontColor=#FF170F;fillColor=#d5e8d4;strokeColor=#82b366;gradientColor=#97d077;" edge="1" parent="1" source="cKF6XrIwRZo3c_A1Ql75-19" target="cKF6XrIwRZo3c_A1Ql75-39">
          <mxGeometry relative="1" as="geometry">
            <Array as="points">
              <mxPoint x="565" y="780" />
              <mxPoint x="420" y="780" />
            </Array>
            <mxPoint x="480" y="670" as="targetPoint" />
          </mxGeometry>
        </mxCell>
        <mxCell id="cKF6XrIwRZo3c_A1Ql75-19" value="SAM" style="rounded=1;whiteSpace=wrap;html=1;rotation=-90;verticalAlign=middle;fillColor=#cdeb8b;strokeColor=#000000;fontColor=default;" vertex="1" parent="1">
          <mxGeometry x="525" y="935" width="80" height="50" as="geometry" />
        </mxCell>
        <mxCell id="cKF6XrIwRZo3c_A1Ql75-20" value="Restored（I）" style="rounded=1;whiteSpace=wrap;html=1;rotation=-90;verticalAlign=middle;fillColor=#b0e3e6;strokeColor=#000000;fontColor=default;" vertex="1" parent="1">
          <mxGeometry x="619" y="940" width="102" height="40" as="geometry" />
        </mxCell>
        <mxCell id="cKF6XrIwRZo3c_A1Ql75-21" value="&lt;h2&gt;&lt;span style=&quot;font-weight: normal&quot;&gt;U-Net&lt;/span&gt;&lt;/h2&gt;" style="text;html=1;strokeColor=none;fillColor=none;align=center;verticalAlign=middle;whiteSpace=wrap;rounded=0;fontColor=default;" vertex="1" parent="1">
          <mxGeometry x="370" y="1000" width="100" height="30" as="geometry" />
        </mxCell>
        <mxCell id="cKF6XrIwRZo3c_A1Ql75-22" value="&lt;h3&gt;&lt;font color=&quot;#808080&quot; style=&quot;font-weight: normal ; font-size: 13px&quot;&gt;Feature Extract&lt;/font&gt;&lt;/h3&gt;" style="text;html=1;strokeColor=none;fillColor=none;align=center;verticalAlign=middle;whiteSpace=wrap;rounded=0;fontColor=#FF170F;" vertex="1" parent="1">
          <mxGeometry x="170" y="888" width="130" height="20" as="geometry" />
        </mxCell>
        <mxCell id="cKF6XrIwRZo3c_A1Ql75-23" value="" style="edgeStyle=orthogonalEdgeStyle;rounded=0;orthogonalLoop=1;jettySize=auto;html=1;fontColor=#FF170F;" edge="1" parent="1" source="cKF6XrIwRZo3c_A1Ql75-24" target="cKF6XrIwRZo3c_A1Ql75-26">
          <mxGeometry relative="1" as="geometry" />
        </mxCell>
        <mxCell id="cKF6XrIwRZo3c_A1Ql75-24" value="" style="verticalLabelPosition=middle;verticalAlign=middle;html=1;shape=trapezoid;perimeter=trapezoidPerimeter;whiteSpace=wrap;size=0.23;arcSize=10;flipV=1;labelPosition=center;align=center;rotation=-90;fillColor=#fff2cc;strokeColor=#000000;fontColor=default;" vertex="1" parent="1">
          <mxGeometry x="435" y="630" width="100" height="60" as="geometry" />
        </mxCell>
        <mxCell id="cKF6XrIwRZo3c_A1Ql75-25" value="" style="edgeStyle=orthogonalEdgeStyle;rounded=0;orthogonalLoop=1;jettySize=auto;html=1;fontColor=#FF170F;" edge="1" parent="1" source="cKF6XrIwRZo3c_A1Ql75-26" target="cKF6XrIwRZo3c_A1Ql75-42">
          <mxGeometry relative="1" as="geometry" />
        </mxCell>
        <mxCell id="cKF6XrIwRZo3c_A1Ql75-26" value="" style="verticalLabelPosition=middle;verticalAlign=middle;html=1;shape=trapezoid;perimeter=trapezoidPerimeter;whiteSpace=wrap;size=0.23;arcSize=10;flipV=1;labelPosition=center;align=center;rotation=90;fillColor=#f8cecc;strokeColor=#000000;fontColor=default;" vertex="1" parent="1">
          <mxGeometry x="530" y="630" width="100" height="60" as="geometry" />
        </mxCell>
        <mxCell id="cKF6XrIwRZo3c_A1Ql75-27" value="&lt;h2&gt;&lt;span style=&quot;font-weight: normal&quot;&gt;U-Former&lt;/span&gt;&lt;/h2&gt;" style="text;html=1;strokeColor=none;fillColor=none;align=center;verticalAlign=middle;whiteSpace=wrap;rounded=0;fontColor=default;" vertex="1" parent="1">
          <mxGeometry x="480" y="600" width="100" height="30" as="geometry" />
        </mxCell>
        <mxCell id="cKF6XrIwRZo3c_A1Ql75-28" value="" style="edgeStyle=orthogonalEdgeStyle;rounded=0;orthogonalLoop=1;jettySize=auto;html=1;fontColor=#FF170F;strokeColor=default;labelBackgroundColor=default;" edge="1" parent="1" source="cKF6XrIwRZo3c_A1Ql75-30" target="cKF6XrIwRZo3c_A1Ql75-32">
          <mxGeometry relative="1" as="geometry" />
        </mxCell>
        <mxCell id="cKF6XrIwRZo3c_A1Ql75-29" style="edgeStyle=orthogonalEdgeStyle;rounded=0;orthogonalLoop=1;jettySize=auto;html=1;entryX=0.5;entryY=0;entryDx=0;entryDy=0;labelBackgroundColor=default;fontSize=13;fontColor=default;strokeColor=default;exitX=1;exitY=0.5;exitDx=0;exitDy=0;" edge="1" parent="1" source="cKF6XrIwRZo3c_A1Ql75-30" target="cKF6XrIwRZo3c_A1Ql75-44">
          <mxGeometry relative="1" as="geometry">
            <mxPoint x="80" y="660" as="sourcePoint" />
            <Array as="points">
              <mxPoint x="120" y="660" />
              <mxPoint x="120" y="560" />
              <mxPoint x="745" y="560" />
            </Array>
            <mxPoint x="780" y="650" as="targetPoint" />
          </mxGeometry>
        </mxCell>
        <mxCell id="cKF6XrIwRZo3c_A1Ql75-30" value="Degraded" style="rounded=0;whiteSpace=wrap;html=1;fillColor=none;strokeColor=none;fontColor=default;" vertex="1" parent="1">
          <mxGeometry x="20" y="640" width="80" height="40" as="geometry" />
        </mxCell>
        <mxCell id="cKF6XrIwRZo3c_A1Ql75-31" style="edgeStyle=orthogonalEdgeStyle;rounded=0;orthogonalLoop=1;jettySize=auto;html=1;exitX=0.5;exitY=1;exitDx=0;exitDy=0;entryX=0.5;entryY=0;entryDx=0;entryDy=0;" edge="1" parent="1" source="cKF6XrIwRZo3c_A1Ql75-32" target="cKF6XrIwRZo3c_A1Ql75-34">
          <mxGeometry relative="1" as="geometry" />
        </mxCell>
        <mxCell id="cKF6XrIwRZo3c_A1Ql75-32" value="Conv" style="rounded=1;whiteSpace=wrap;html=1;rotation=-90;verticalAlign=middle;fillColor=#f5f5f5;strokeColor=#000000;fontColor=#333333;" vertex="1" parent="1">
          <mxGeometry x="170" y="640" width="80" height="40" as="geometry" />
        </mxCell>
        <mxCell id="cKF6XrIwRZo3c_A1Ql75-33" style="edgeStyle=orthogonalEdgeStyle;rounded=0;orthogonalLoop=1;jettySize=auto;html=1;exitX=0.5;exitY=1;exitDx=0;exitDy=0;entryX=0.5;entryY=0;entryDx=0;entryDy=0;fontColor=#FF170F;" edge="1" parent="1" source="cKF6XrIwRZo3c_A1Ql75-34" target="cKF6XrIwRZo3c_A1Ql75-36">
          <mxGeometry relative="1" as="geometry" />
        </mxCell>
        <mxCell id="cKF6XrIwRZo3c_A1Ql75-34" value="LeakyReLU" style="rounded=1;whiteSpace=wrap;html=1;rotation=-90;verticalAlign=middle;fillColor=#dae8fc;strokeColor=#000000;fontColor=default;" vertex="1" parent="1">
          <mxGeometry x="240" y="640" width="80" height="40" as="geometry" />
        </mxCell>
        <mxCell id="cKF6XrIwRZo3c_A1Ql75-35" value="" style="edgeStyle=orthogonalEdgeStyle;rounded=0;orthogonalLoop=1;jettySize=auto;html=1;fontColor=#FF170F;entryX=0;entryY=0.5;entryDx=0;entryDy=0;" edge="1" parent="1" source="cKF6XrIwRZo3c_A1Ql75-36" target="cKF6XrIwRZo3c_A1Ql75-39">
          <mxGeometry relative="1" as="geometry">
            <mxPoint x="400" y="660" as="targetPoint" />
          </mxGeometry>
        </mxCell>
        <mxCell id="cKF6XrIwRZo3c_A1Ql75-36" value="PosDrop" style="rounded=1;whiteSpace=wrap;html=1;rotation=-90;verticalAlign=middle;fillColor=#ffe6cc;strokeColor=#000000;fontColor=default;" vertex="1" parent="1">
          <mxGeometry x="320" y="640" width="80" height="40" as="geometry" />
        </mxCell>
        <mxCell id="cKF6XrIwRZo3c_A1Ql75-37" value="&lt;h3&gt;&lt;span style=&quot;font-weight: normal&quot;&gt;&lt;font color=&quot;#808080&quot; style=&quot;font-size: 13px&quot;&gt;Input Projection&lt;/font&gt;&lt;/span&gt;&lt;/h3&gt;" style="text;html=1;strokeColor=none;fillColor=none;align=center;verticalAlign=middle;whiteSpace=wrap;rounded=0;fontColor=#FF170F;" vertex="1" parent="1">
          <mxGeometry x="184" y="585" width="130" height="20" as="geometry" />
        </mxCell>
        <mxCell id="cKF6XrIwRZo3c_A1Ql75-38" value="" style="edgeStyle=orthogonalEdgeStyle;rounded=0;orthogonalLoop=1;jettySize=auto;html=1;fontColor=#FF170F;" edge="1" parent="1" source="cKF6XrIwRZo3c_A1Ql75-39" target="cKF6XrIwRZo3c_A1Ql75-24">
          <mxGeometry relative="1" as="geometry" />
        </mxCell>
        <mxCell id="cKF6XrIwRZo3c_A1Ql75-39" value="" style="shape=orEllipse;perimeter=ellipsePerimeter;whiteSpace=wrap;html=1;backgroundOutline=1;fontColor=#FF170F;strokeColor=#000000;align=center;verticalAlign=top;fillColor=default;" vertex="1" parent="1">
          <mxGeometry x="410" y="650" width="20" height="20" as="geometry" />
        </mxCell>
        <mxCell id="cKF6XrIwRZo3c_A1Ql75-40" value="Restored（II）" style="rounded=1;whiteSpace=wrap;html=1;rotation=-90;verticalAlign=middle;fillColor=#b1ddf0;strokeColor=default;fontColor=default;labelBackgroundColor=none;" vertex="1" parent="1">
          <mxGeometry x="750" y="640" width="100" height="40" as="geometry" />
        </mxCell>
        <mxCell id="cKF6XrIwRZo3c_A1Ql75-41" style="edgeStyle=orthogonalEdgeStyle;rounded=0;orthogonalLoop=1;jettySize=auto;html=1;exitX=0.5;exitY=1;exitDx=0;exitDy=0;entryX=0;entryY=0.5;entryDx=0;entryDy=0;labelBackgroundColor=default;fontSize=13;fontColor=default;strokeColor=default;" edge="1" parent="1" source="cKF6XrIwRZo3c_A1Ql75-42" target="cKF6XrIwRZo3c_A1Ql75-44">
          <mxGeometry relative="1" as="geometry" />
        </mxCell>
        <mxCell id="cKF6XrIwRZo3c_A1Ql75-42" value="Out Projection" style="rounded=1;whiteSpace=wrap;html=1;rotation=-90;verticalAlign=middle;fillColor=#e1d5e7;strokeColor=#000000;fontColor=default;" vertex="1" parent="1">
          <mxGeometry x="626" y="635" width="109" height="50" as="geometry" />
        </mxCell>
        <mxCell id="cKF6XrIwRZo3c_A1Ql75-43" style="edgeStyle=orthogonalEdgeStyle;rounded=0;orthogonalLoop=1;jettySize=auto;html=1;exitX=1;exitY=0.5;exitDx=0;exitDy=0;labelBackgroundColor=default;fontSize=13;fontColor=default;strokeColor=default;" edge="1" parent="1" source="cKF6XrIwRZo3c_A1Ql75-44" target="cKF6XrIwRZo3c_A1Ql75-40">
          <mxGeometry relative="1" as="geometry" />
        </mxCell>
        <mxCell id="cKF6XrIwRZo3c_A1Ql75-44" value="" style="shape=orEllipse;perimeter=ellipsePerimeter;whiteSpace=wrap;html=1;backgroundOutline=1;fontColor=default;strokeColor=default;align=center;verticalAlign=top;fillColor=default;labelBackgroundColor=default;" vertex="1" parent="1">
          <mxGeometry x="735" y="650" width="20" height="20" as="geometry" />
        </mxCell>
        <mxCell id="cKF6XrIwRZo3c_A1Ql75-45" value="Supervise Block" style="text;html=1;strokeColor=none;fillColor=none;align=center;verticalAlign=middle;whiteSpace=wrap;rounded=0;labelBackgroundColor=none;fontSize=13;fontColor=default;" vertex="1" parent="1">
          <mxGeometry x="610" y="853" width="120" height="22" as="geometry" />
        </mxCell>
        <mxCell id="cKF6XrIwRZo3c_A1Ql75-47" value="" style="rounded=0;whiteSpace=wrap;html=1;shadow=0;glass=0;labelBackgroundColor=none;sketch=0;fontColor=default;strokeColor=default;fillColor=none;dashed=1;" vertex="1" parent="1">
          <mxGeometry x="1138" y="1004" width="270" height="130" as="geometry" />
        </mxCell>
        <mxCell id="cKF6XrIwRZo3c_A1Ql75-48" value="" style="rounded=0;whiteSpace=wrap;html=1;shadow=0;glass=0;labelBackgroundColor=none;sketch=0;fontColor=default;strokeColor=default;fillColor=none;dashed=1;" vertex="1" parent="1">
          <mxGeometry x="1428" y="420" width="222" height="687.5" as="geometry" />
        </mxCell>
        <mxCell id="cKF6XrIwRZo3c_A1Ql75-49" value="" style="edgeStyle=orthogonalEdgeStyle;rounded=0;orthogonalLoop=1;jettySize=auto;html=1;fontColor=default;strokeColor=default;labelBackgroundColor=default;" edge="1" parent="1" target="cKF6XrIwRZo3c_A1Ql75-52">
          <mxGeometry relative="1" as="geometry">
            <mxPoint x="1026" y="390" as="sourcePoint" />
          </mxGeometry>
        </mxCell>
        <mxCell id="cKF6XrIwRZo3c_A1Ql75-50" style="edgeStyle=orthogonalEdgeStyle;rounded=0;orthogonalLoop=1;jettySize=auto;html=1;exitX=0.5;exitY=1;exitDx=0;exitDy=0;entryX=0.5;entryY=0;entryDx=0;entryDy=0;labelBackgroundColor=default;fontColor=default;strokeColor=default;" edge="1" parent="1" source="cKF6XrIwRZo3c_A1Ql75-52" target="cKF6XrIwRZo3c_A1Ql75-63">
          <mxGeometry relative="1" as="geometry" />
        </mxCell>
        <mxCell id="cKF6XrIwRZo3c_A1Ql75-51" style="edgeStyle=orthogonalEdgeStyle;rounded=0;orthogonalLoop=1;jettySize=auto;html=1;exitX=1;exitY=0.5;exitDx=0;exitDy=0;labelBackgroundColor=default;fontColor=default;startArrow=none;startFill=0;endArrow=classic;endFill=1;strokeColor=default;" edge="1" parent="1" source="cKF6XrIwRZo3c_A1Ql75-52" target="cKF6XrIwRZo3c_A1Ql75-81">
          <mxGeometry relative="1" as="geometry" />
        </mxCell>
        <mxCell id="cKF6XrIwRZo3c_A1Ql75-52" value="LeWin Transformer Block" style="rounded=1;whiteSpace=wrap;html=1;fillColor=#dae8fc;strokeColor=#000000;shadow=0;glass=0;sketch=0;labelBackgroundColor=none;fontColor=default;" vertex="1" parent="1">
          <mxGeometry x="966" y="457" width="120" height="80" as="geometry" />
        </mxCell>
        <mxCell id="cKF6XrIwRZo3c_A1Ql75-53" value="x2" style="text;html=1;strokeColor=none;fillColor=none;align=center;verticalAlign=middle;whiteSpace=wrap;rounded=0;shadow=0;glass=0;sketch=0;fontColor=default;labelBackgroundColor=none;" vertex="1" parent="1">
          <mxGeometry x="1056" y="517" width="30" height="20" as="geometry" />
        </mxCell>
        <mxCell id="cKF6XrIwRZo3c_A1Ql75-54" style="edgeStyle=orthogonalEdgeStyle;rounded=0;orthogonalLoop=1;jettySize=auto;html=1;exitX=0.5;exitY=1;exitDx=0;exitDy=0;entryX=0.5;entryY=0;entryDx=0;entryDy=0;labelBackgroundColor=default;fontColor=default;strokeColor=default;" edge="1" parent="1" source="cKF6XrIwRZo3c_A1Ql75-56" target="cKF6XrIwRZo3c_A1Ql75-65">
          <mxGeometry relative="1" as="geometry" />
        </mxCell>
        <mxCell id="cKF6XrIwRZo3c_A1Ql75-55" style="edgeStyle=orthogonalEdgeStyle;rounded=0;orthogonalLoop=1;jettySize=auto;html=1;exitX=1;exitY=0.5;exitDx=0;exitDy=0;entryX=0;entryY=0.5;entryDx=0;entryDy=0;labelBackgroundColor=default;fontColor=default;startArrow=none;startFill=0;endArrow=classic;endFill=1;strokeColor=default;" edge="1" parent="1" source="cKF6XrIwRZo3c_A1Ql75-56" target="cKF6XrIwRZo3c_A1Ql75-78">
          <mxGeometry relative="1" as="geometry" />
        </mxCell>
        <mxCell id="cKF6XrIwRZo3c_A1Ql75-56" value="LeWin Transformer Block" style="rounded=1;whiteSpace=wrap;html=1;fillColor=#dae8fc;strokeColor=#000000;shadow=0;glass=0;sketch=0;labelBackgroundColor=none;fontColor=default;" vertex="1" parent="1">
          <mxGeometry x="966" y="697" width="120" height="80" as="geometry" />
        </mxCell>
        <mxCell id="cKF6XrIwRZo3c_A1Ql75-57" value="x2" style="text;html=1;strokeColor=none;fillColor=none;align=center;verticalAlign=middle;whiteSpace=wrap;rounded=0;shadow=0;glass=0;sketch=0;fontColor=default;labelBackgroundColor=none;" vertex="1" parent="1">
          <mxGeometry x="1056" y="757" width="30" height="20" as="geometry" />
        </mxCell>
        <mxCell id="cKF6XrIwRZo3c_A1Ql75-58" style="edgeStyle=orthogonalEdgeStyle;rounded=0;orthogonalLoop=1;jettySize=auto;html=1;exitX=0.5;exitY=1;exitDx=0;exitDy=0;entryX=0.5;entryY=0;entryDx=0;entryDy=0;labelBackgroundColor=default;fontColor=default;strokeColor=default;" edge="1" parent="1" source="cKF6XrIwRZo3c_A1Ql75-60" target="cKF6XrIwRZo3c_A1Ql75-67">
          <mxGeometry relative="1" as="geometry" />
        </mxCell>
        <mxCell id="cKF6XrIwRZo3c_A1Ql75-59" style="edgeStyle=orthogonalEdgeStyle;rounded=0;orthogonalLoop=1;jettySize=auto;html=1;exitX=1;exitY=0.5;exitDx=0;exitDy=0;entryX=0;entryY=0.5;entryDx=0;entryDy=0;labelBackgroundColor=default;fontColor=default;startArrow=none;startFill=0;endArrow=classic;endFill=1;strokeColor=default;" edge="1" parent="1" source="cKF6XrIwRZo3c_A1Ql75-60" target="cKF6XrIwRZo3c_A1Ql75-75">
          <mxGeometry relative="1" as="geometry" />
        </mxCell>
        <mxCell id="cKF6XrIwRZo3c_A1Ql75-60" value="LeWin Transformer Block" style="rounded=1;whiteSpace=wrap;html=1;fillColor=#dae8fc;strokeColor=default;shadow=0;glass=0;sketch=0;labelBackgroundColor=none;fontColor=default;" vertex="1" parent="1">
          <mxGeometry x="966" y="934" width="120" height="80" as="geometry" />
        </mxCell>
        <mxCell id="cKF6XrIwRZo3c_A1Ql75-61" value="x2" style="text;html=1;strokeColor=none;fillColor=none;align=center;verticalAlign=middle;whiteSpace=wrap;rounded=0;shadow=0;glass=0;sketch=0;fontColor=default;labelBackgroundColor=none;" vertex="1" parent="1">
          <mxGeometry x="1056" y="994" width="30" height="20" as="geometry" />
        </mxCell>
        <mxCell id="cKF6XrIwRZo3c_A1Ql75-62" style="edgeStyle=orthogonalEdgeStyle;rounded=0;orthogonalLoop=1;jettySize=auto;html=1;exitX=0.5;exitY=1;exitDx=0;exitDy=0;labelBackgroundColor=default;fontColor=default;strokeColor=default;" edge="1" parent="1" source="cKF6XrIwRZo3c_A1Ql75-63" target="cKF6XrIwRZo3c_A1Ql75-56">
          <mxGeometry relative="1" as="geometry" />
        </mxCell>
        <mxCell id="cKF6XrIwRZo3c_A1Ql75-63" value="Down-sampling" style="rounded=1;whiteSpace=wrap;html=1;shadow=0;glass=0;labelBackgroundColor=none;sketch=0;strokeColor=#000000;fillColor=#fff2cc;fontColor=default;" vertex="1" parent="1">
          <mxGeometry x="966" y="557" width="120" height="60" as="geometry" />
        </mxCell>
        <mxCell id="cKF6XrIwRZo3c_A1Ql75-64" style="edgeStyle=orthogonalEdgeStyle;rounded=0;orthogonalLoop=1;jettySize=auto;html=1;exitX=0.5;exitY=1;exitDx=0;exitDy=0;labelBackgroundColor=default;fontColor=default;strokeColor=default;" edge="1" parent="1" source="cKF6XrIwRZo3c_A1Ql75-65" target="cKF6XrIwRZo3c_A1Ql75-60">
          <mxGeometry relative="1" as="geometry" />
        </mxCell>
        <mxCell id="cKF6XrIwRZo3c_A1Ql75-65" value="Down-sampling" style="rounded=1;whiteSpace=wrap;html=1;shadow=0;glass=0;labelBackgroundColor=none;sketch=0;strokeColor=#000000;fillColor=#fff2cc;fontColor=default;" vertex="1" parent="1">
          <mxGeometry x="966" y="797" width="120" height="60" as="geometry" />
        </mxCell>
        <mxCell id="cKF6XrIwRZo3c_A1Ql75-66" style="edgeStyle=orthogonalEdgeStyle;rounded=0;orthogonalLoop=1;jettySize=auto;html=1;exitX=1;exitY=0.5;exitDx=0;exitDy=0;labelBackgroundColor=default;fontColor=default;startArrow=none;startFill=0;endArrow=classic;endFill=1;strokeColor=default;" edge="1" parent="1" source="cKF6XrIwRZo3c_A1Ql75-67" target="cKF6XrIwRZo3c_A1Ql75-70">
          <mxGeometry relative="1" as="geometry" />
        </mxCell>
        <mxCell id="cKF6XrIwRZo3c_A1Ql75-67" value="Down-sampling" style="rounded=1;whiteSpace=wrap;html=1;shadow=0;glass=0;labelBackgroundColor=none;sketch=0;strokeColor=#000000;fillColor=#fff2cc;fontColor=default;" vertex="1" parent="1">
          <mxGeometry x="966" y="1034" width="120" height="60" as="geometry" />
        </mxCell>
        <mxCell id="cKF6XrIwRZo3c_A1Ql75-68" value="&lt;i&gt;&lt;font&gt;C x H x W&lt;/font&gt;&lt;/i&gt;" style="text;html=1;strokeColor=none;fillColor=none;align=center;verticalAlign=middle;whiteSpace=wrap;rounded=0;shadow=0;glass=0;labelBackgroundColor=none;sketch=0;fontColor=#808080;" vertex="1" parent="1">
          <mxGeometry x="936" y="390" width="60" height="30" as="geometry" />
        </mxCell>
        <mxCell id="cKF6XrIwRZo3c_A1Ql75-69" style="edgeStyle=orthogonalEdgeStyle;rounded=0;orthogonalLoop=1;jettySize=auto;html=1;exitX=1;exitY=0.5;exitDx=0;exitDy=0;labelBackgroundColor=default;fontColor=default;startArrow=none;startFill=0;endArrow=classic;endFill=1;strokeColor=default;" edge="1" parent="1" source="cKF6XrIwRZo3c_A1Ql75-70" target="cKF6XrIwRZo3c_A1Ql75-73">
          <mxGeometry relative="1" as="geometry" />
        </mxCell>
        <mxCell id="cKF6XrIwRZo3c_A1Ql75-70" value="LeWin Transformer Block" style="rounded=1;whiteSpace=wrap;html=1;fillColor=#dae8fc;strokeColor=default;shadow=0;glass=0;sketch=0;labelBackgroundColor=none;fontColor=default;" vertex="1" parent="1">
          <mxGeometry x="1208" y="1024" width="120" height="80" as="geometry" />
        </mxCell>
        <mxCell id="cKF6XrIwRZo3c_A1Ql75-71" value="x2" style="text;html=1;strokeColor=none;fillColor=none;align=center;verticalAlign=middle;whiteSpace=wrap;rounded=0;shadow=0;glass=0;sketch=0;fontColor=default;labelBackgroundColor=none;" vertex="1" parent="1">
          <mxGeometry x="1298" y="1084" width="30" height="20" as="geometry" />
        </mxCell>
        <mxCell id="cKF6XrIwRZo3c_A1Ql75-72" style="edgeStyle=orthogonalEdgeStyle;rounded=0;orthogonalLoop=1;jettySize=auto;html=1;exitX=0.5;exitY=0;exitDx=0;exitDy=0;entryX=0.5;entryY=1;entryDx=0;entryDy=0;labelBackgroundColor=default;fontColor=default;startArrow=none;startFill=0;endArrow=classic;endFill=1;strokeColor=default;" edge="1" parent="1" source="cKF6XrIwRZo3c_A1Ql75-73" target="cKF6XrIwRZo3c_A1Ql75-75">
          <mxGeometry relative="1" as="geometry" />
        </mxCell>
        <mxCell id="cKF6XrIwRZo3c_A1Ql75-73" value="Up-sampling" style="rounded=1;whiteSpace=wrap;html=1;shadow=0;glass=0;labelBackgroundColor=none;sketch=0;strokeColor=#000000;fillColor=#ffe6cc;fontColor=default;" vertex="1" parent="1">
          <mxGeometry x="1448" y="1034" width="120" height="60" as="geometry" />
        </mxCell>
        <mxCell id="cKF6XrIwRZo3c_A1Ql75-74" style="edgeStyle=orthogonalEdgeStyle;rounded=0;orthogonalLoop=1;jettySize=auto;html=1;exitX=0.5;exitY=0;exitDx=0;exitDy=0;labelBackgroundColor=default;fontColor=default;startArrow=none;startFill=0;endArrow=classic;endFill=1;strokeColor=default;" edge="1" parent="1" source="cKF6XrIwRZo3c_A1Ql75-75" target="cKF6XrIwRZo3c_A1Ql75-84">
          <mxGeometry relative="1" as="geometry" />
        </mxCell>
        <mxCell id="cKF6XrIwRZo3c_A1Ql75-75" value="LeWin Transformer Block" style="rounded=1;whiteSpace=wrap;html=1;fillColor=#dae8fc;strokeColor=default;shadow=0;glass=0;sketch=0;labelBackgroundColor=none;fontColor=default;" vertex="1" parent="1">
          <mxGeometry x="1448" y="934" width="120" height="80" as="geometry" />
        </mxCell>
        <mxCell id="cKF6XrIwRZo3c_A1Ql75-76" value="x2" style="text;html=1;strokeColor=none;fillColor=none;align=center;verticalAlign=middle;whiteSpace=wrap;rounded=0;shadow=0;glass=0;sketch=0;fontColor=default;labelBackgroundColor=none;" vertex="1" parent="1">
          <mxGeometry x="1538" y="994" width="30" height="20" as="geometry" />
        </mxCell>
        <mxCell id="cKF6XrIwRZo3c_A1Ql75-77" style="edgeStyle=orthogonalEdgeStyle;rounded=0;orthogonalLoop=1;jettySize=auto;html=1;exitX=0.5;exitY=0;exitDx=0;exitDy=0;entryX=0.5;entryY=1;entryDx=0;entryDy=0;labelBackgroundColor=default;fontColor=default;startArrow=none;startFill=0;endArrow=classic;endFill=1;strokeColor=default;" edge="1" parent="1" source="cKF6XrIwRZo3c_A1Ql75-78" target="cKF6XrIwRZo3c_A1Ql75-86">
          <mxGeometry relative="1" as="geometry" />
        </mxCell>
        <mxCell id="cKF6XrIwRZo3c_A1Ql75-78" value="LeWin Transformer Block" style="rounded=1;whiteSpace=wrap;html=1;fillColor=#dae8fc;strokeColor=default;shadow=0;glass=0;sketch=0;labelBackgroundColor=none;fontColor=default;" vertex="1" parent="1">
          <mxGeometry x="1448" y="696" width="120" height="80" as="geometry" />
        </mxCell>
        <mxCell id="cKF6XrIwRZo3c_A1Ql75-79" value="x2" style="text;html=1;strokeColor=none;fillColor=none;align=center;verticalAlign=middle;whiteSpace=wrap;rounded=0;shadow=0;glass=0;sketch=0;fontColor=default;labelBackgroundColor=none;" vertex="1" parent="1">
          <mxGeometry x="1538" y="756" width="30" height="20" as="geometry" />
        </mxCell>
        <mxCell id="cKF6XrIwRZo3c_A1Ql75-80" style="edgeStyle=orthogonalEdgeStyle;rounded=0;orthogonalLoop=1;jettySize=auto;html=1;exitX=0.5;exitY=0;exitDx=0;exitDy=0;labelBackgroundColor=default;fontColor=default;startArrow=none;startFill=0;endArrow=classic;endFill=1;strokeColor=default;" edge="1" parent="1" source="cKF6XrIwRZo3c_A1Ql75-81">
          <mxGeometry relative="1" as="geometry">
            <mxPoint x="1508" y="390" as="targetPoint" />
          </mxGeometry>
        </mxCell>
        <mxCell id="cKF6XrIwRZo3c_A1Ql75-81" value="LeWin Transformer Block" style="rounded=1;whiteSpace=wrap;html=1;fillColor=#dae8fc;strokeColor=default;shadow=0;glass=0;sketch=0;labelBackgroundColor=none;fontColor=default;" vertex="1" parent="1">
          <mxGeometry x="1448" y="457" width="120" height="80" as="geometry" />
        </mxCell>
        <mxCell id="cKF6XrIwRZo3c_A1Ql75-82" value="x2" style="text;html=1;strokeColor=none;fillColor=none;align=center;verticalAlign=middle;whiteSpace=wrap;rounded=0;shadow=0;glass=0;sketch=0;fontColor=default;labelBackgroundColor=none;" vertex="1" parent="1">
          <mxGeometry x="1538" y="517" width="30" height="20" as="geometry" />
        </mxCell>
        <mxCell id="cKF6XrIwRZo3c_A1Ql75-83" style="edgeStyle=orthogonalEdgeStyle;rounded=0;orthogonalLoop=1;jettySize=auto;html=1;exitX=0.5;exitY=0;exitDx=0;exitDy=0;entryX=0.5;entryY=1;entryDx=0;entryDy=0;labelBackgroundColor=default;fontColor=default;startArrow=none;startFill=0;endArrow=classic;endFill=1;strokeColor=default;" edge="1" parent="1" source="cKF6XrIwRZo3c_A1Ql75-84" target="cKF6XrIwRZo3c_A1Ql75-78">
          <mxGeometry relative="1" as="geometry" />
        </mxCell>
        <mxCell id="cKF6XrIwRZo3c_A1Ql75-84" value="Up-sampling" style="rounded=1;whiteSpace=wrap;html=1;shadow=0;glass=0;labelBackgroundColor=none;sketch=0;strokeColor=#000000;fillColor=#ffe6cc;fontColor=default;" vertex="1" parent="1">
          <mxGeometry x="1448" y="796" width="120" height="60" as="geometry" />
        </mxCell>
        <mxCell id="cKF6XrIwRZo3c_A1Ql75-85" style="edgeStyle=orthogonalEdgeStyle;rounded=0;orthogonalLoop=1;jettySize=auto;html=1;exitX=0.5;exitY=0;exitDx=0;exitDy=0;entryX=0.5;entryY=1;entryDx=0;entryDy=0;labelBackgroundColor=default;fontColor=default;startArrow=none;startFill=0;endArrow=classic;endFill=1;strokeColor=default;" edge="1" parent="1" source="cKF6XrIwRZo3c_A1Ql75-86" target="cKF6XrIwRZo3c_A1Ql75-81">
          <mxGeometry relative="1" as="geometry" />
        </mxCell>
        <mxCell id="cKF6XrIwRZo3c_A1Ql75-86" value="Up-sampling" style="rounded=1;whiteSpace=wrap;html=1;shadow=0;glass=0;labelBackgroundColor=none;sketch=0;strokeColor=#000000;fillColor=#ffe6cc;fontColor=default;" vertex="1" parent="1">
          <mxGeometry x="1448" y="567" width="120" height="60" as="geometry" />
        </mxCell>
        <mxCell id="cKF6XrIwRZo3c_A1Ql75-87" value="&lt;b&gt;&lt;font style=&quot;font-size: 15px&quot;&gt;Encoder&lt;/font&gt;&lt;/b&gt;" style="text;html=1;strokeColor=none;fillColor=none;align=center;verticalAlign=middle;whiteSpace=wrap;rounded=0;shadow=0;glass=0;dashed=1;labelBackgroundColor=none;sketch=0;fontColor=default;" vertex="1" parent="1">
          <mxGeometry x="886" y="430" width="80" height="50" as="geometry" />
        </mxCell>
        <mxCell id="cKF6XrIwRZo3c_A1Ql75-88" value="&lt;b&gt;&lt;font style=&quot;font-size: 15px&quot;&gt;Decoder&lt;/font&gt;&lt;/b&gt;" style="text;html=1;strokeColor=none;fillColor=none;align=center;verticalAlign=middle;whiteSpace=wrap;rounded=0;shadow=0;glass=0;dashed=1;labelBackgroundColor=none;sketch=0;fontColor=default;" vertex="1" parent="1">
          <mxGeometry x="1568" y="410" width="80" height="50" as="geometry" />
        </mxCell>
        <mxCell id="cKF6XrIwRZo3c_A1Ql75-89" value="&lt;span style=&quot;font-size: 15px&quot;&gt;&lt;b&gt;Bottleneck&lt;/b&gt;&lt;/span&gt;" style="text;html=1;strokeColor=none;fillColor=none;align=center;verticalAlign=middle;whiteSpace=wrap;rounded=0;shadow=0;glass=0;dashed=1;labelBackgroundColor=none;sketch=0;fontColor=default;" vertex="1" parent="1">
          <mxGeometry x="1138" y="1094" width="80" height="50" as="geometry" />
        </mxCell>
        <mxCell id="cKF6XrIwRZo3c_A1Ql75-90" value="&lt;i&gt;&lt;font&gt;2C x (H / 2) x (W / 2)&lt;/font&gt;&lt;/i&gt;" style="text;html=1;strokeColor=none;fillColor=none;align=center;verticalAlign=middle;whiteSpace=wrap;rounded=0;shadow=0;glass=0;labelBackgroundColor=none;sketch=0;fontColor=#808080;" vertex="1" parent="1">
          <mxGeometry x="906" y="635" width="120" height="30" as="geometry" />
        </mxCell>
        <mxCell id="cKF6XrIwRZo3c_A1Ql75-91" value="&lt;i&gt;&lt;font&gt;4C x (H / 4) x (W / 4)&lt;/font&gt;&lt;/i&gt;" style="text;html=1;strokeColor=none;fillColor=none;align=center;verticalAlign=middle;whiteSpace=wrap;rounded=0;shadow=0;glass=0;labelBackgroundColor=none;sketch=0;fontColor=#808080;" vertex="1" parent="1">
          <mxGeometry x="906" y="883" width="120" height="30" as="geometry" />
        </mxCell>
        <mxCell id="cKF6XrIwRZo3c_A1Ql75-92" value="&lt;i&gt;&lt;font&gt;8C x (H / 8) x (W / 8)&lt;/font&gt;&lt;/i&gt;" style="text;html=1;strokeColor=none;fillColor=none;align=center;verticalAlign=middle;whiteSpace=wrap;rounded=0;shadow=0;glass=0;labelBackgroundColor=none;sketch=0;fontColor=#808080;" vertex="1" parent="1">
          <mxGeometry x="1086" y="1014" width="120" height="30" as="geometry" />
        </mxCell>
        <mxCell id="cKF6XrIwRZo3c_A1Ql75-93" value="&lt;i&gt;&lt;font&gt;8C x (H / 8) x (W / 8)&lt;/font&gt;&lt;/i&gt;" style="text;html=1;strokeColor=none;fillColor=none;align=center;verticalAlign=middle;whiteSpace=wrap;rounded=0;shadow=0;glass=0;labelBackgroundColor=none;sketch=0;fontColor=#808080;" vertex="1" parent="1">
          <mxGeometry x="1328" y="1018" width="120" height="30" as="geometry" />
        </mxCell>
        <mxCell id="cKF6XrIwRZo3c_A1Ql75-94" value="&lt;i&gt;&lt;font&gt;4C x (H / 4) x (W / 4)&lt;/font&gt;&lt;/i&gt;" style="text;html=1;strokeColor=none;fillColor=none;align=center;verticalAlign=middle;whiteSpace=wrap;rounded=0;shadow=0;glass=0;labelBackgroundColor=none;sketch=0;fontColor=#808080;" vertex="1" parent="1">
          <mxGeometry x="1515" y="878" width="120" height="30" as="geometry" />
        </mxCell>
        <mxCell id="cKF6XrIwRZo3c_A1Ql75-95" value="&lt;i&gt;&lt;font&gt;2C x (H / 2) x (W / 2)&lt;/font&gt;&lt;/i&gt;" style="text;html=1;strokeColor=none;fillColor=none;align=center;verticalAlign=middle;whiteSpace=wrap;rounded=0;shadow=0;glass=0;labelBackgroundColor=none;sketch=0;fontColor=#808080;" vertex="1" parent="1">
          <mxGeometry x="1510" y="645" width="120" height="30" as="geometry" />
        </mxCell>
        <mxCell id="cKF6XrIwRZo3c_A1Ql75-96" value="&lt;i&gt;&lt;font&gt;C x H x W&amp;nbsp;&lt;/font&gt;&lt;/i&gt;" style="text;html=1;strokeColor=none;fillColor=none;align=center;verticalAlign=middle;whiteSpace=wrap;rounded=0;shadow=0;glass=0;labelBackgroundColor=none;sketch=0;fontColor=#808080;" vertex="1" parent="1">
          <mxGeometry x="1515" y="390" width="120" height="30" as="geometry" />
        </mxCell>
        <mxCell id="cKF6XrIwRZo3c_A1Ql75-97" value="Skip-connection" style="text;html=1;strokeColor=none;fillColor=none;align=center;verticalAlign=middle;whiteSpace=wrap;rounded=0;" vertex="1" parent="1">
          <mxGeometry x="1208" y="700" width="120" height="30" as="geometry" />
        </mxCell>
        <mxCell id="cKF6XrIwRZo3c_A1Ql75-98" value="Skip-connection" style="text;html=1;strokeColor=none;fillColor=none;align=center;verticalAlign=middle;whiteSpace=wrap;rounded=0;" vertex="1" parent="1">
          <mxGeometry x="1206" y="944" width="120" height="30" as="geometry" />
        </mxCell>
        <mxCell id="cKF6XrIwRZo3c_A1Ql75-99" value="Skip-connection" style="text;html=1;strokeColor=none;fillColor=none;align=center;verticalAlign=middle;whiteSpace=wrap;rounded=0;" vertex="1" parent="1">
          <mxGeometry x="1208" y="470" width="120" height="30" as="geometry" />
        </mxCell>
      </root>
    </mxGraphModel>
  </diagram>
</mxfile>
